<?xml version="1.0" encoding="UTF-8" standalone="no"?>
<svg
   version="1.1"
   id="sun_svg"
   x="0px"
   y="0px"
   viewBox="0 0 1220 1220"
   style="enable-background:new 0 0 1220 1220;"
   xml:space="preserve"
   sodipodi:docname="sun_gradient.svg"
   inkscape:version="1.2.2 (732a01da63, 2022-12-09)"
   xmlns:inkscape="http://www.inkscape.org/namespaces/inkscape"
   xmlns:sodipodi="http://sodipodi.sourceforge.net/DTD/sodipodi-0.dtd"
   xmlns:xlink="http://www.w3.org/1999/xlink"
   xmlns="http://www.w3.org/2000/svg"
   xmlns:svg="http://www.w3.org/2000/svg">
   <defs
   id="defs860">
   <linearGradient
     inkscape:collect="always"
     id="linearGradient2544">
     <stop
       style="stop-color:#ffe915;stop-opacity:1;"
       offset="0"
       id="stop2540" />
       <stop
       style="stop-color:#ffd01f;stop-opacity:1;"
       offset="0.1"
       id="stop19302" />
       <stop
       style="stop-color:#fca719;stop-opacity:1;"
       offset="0.2"
       id="stop22208" />
       <stop
       style="stop-color:#f97119;stop-opacity:1;"
       offset="0.3"
       id="stop22936" />
       <stop
       style="stop-color:#f95530;stop-opacity:1;"
       offset="0.4"
       id="stop22938" />
       <stop
       style="stop-color:#f53d5d;stop-opacity:1;"
       offset="0.5"
       id="stop23666" />
       <stop
       style="stop-color:#ff00aa;stop-opacity:1;"
       offset="1"
       id="stop2542" />
       </linearGradient>
     <linearGradient
     inkscape:collect="always"
     xlink:href="#linearGradient2544"
     id="linearGradient2536"
     gradientUnits="userSpaceOnUse"
     x1="608.21814"
     y1="-10.691334"
     x2="618.90942"
     y2="1225.9396" />
     
     </defs>
<g>
	<path
   style="fill-rule:evenodd;clip-rule:evenodd;fill:url(#linearGradient2536);fill-opacity:1"
   d="M846.6,1172.4H373.4c72.7,30.6,152.7,47.6,236.6,47.6   S773.8,1203.1,846.6,1172.4L846.6,1172.4z"
   id="path835" />
	<path
   style="fill-rule:evenodd;clip-rule:evenodd;fill:url(#linearGradient2536);fill-opacity:1"
   d="M275,1119.8H945c24.8-16.3,48.4-34.4,70.5-54.1h-811   C226.6,1085.4,250.1,1103.5,275,1119.8L275,1119.8z"
   id="path837" />
	<path
   style="fill-rule:evenodd;clip-rule:evenodd;fill:url(#linearGradient2536);fill-opacity:1"
   d="M158,1019.7h904c13.9-15.3,27-31.3,39.3-48H118.8   C131,988.3,144.1,1004.4,158,1019.7L158,1019.7z"
   id="path839" />
	<path
   style="fill-rule:evenodd;clip-rule:evenodd;fill:url(#linearGradient2536);fill-opacity:1"
   d="M92.1,932.5h1035.8c8.9-14.2,17.2-28.9,24.9-43.9H67.2   C74.9,903.6,83.2,918.2,92.1,932.5L92.1,932.5z"
   id="path841" />
	<path
   style="fill-rule:evenodd;clip-rule:evenodd;fill:url(#linearGradient2536);fill-opacity:1"
   d="M51.3,855.2h1117.4c6.7-15.2,12.7-30.7,18.2-46.5H33.1   C38.5,824.5,44.6,840,51.3,855.2L51.3,855.2z"
   id="path843" />
	<path
   style="fill-rule:evenodd;clip-rule:evenodd;fill:url(#linearGradient2536);fill-opacity:1"
   d="M22.1,773.4h1175.7c4.1-14.6,7.6-29.5,10.6-44.5H11.6   C14.5,743.9,18.1,758.8,22.1,773.4L22.1,773.4z"
   id="path845" />
	<path
   style="fill-rule:evenodd;clip-rule:evenodd;fill:url(#linearGradient2536);fill-opacity:1"
   d="M6.4,698.7h1207.2c2.5-17,4.3-34.3,5.3-51.7H1.1   C2.1,664.5,3.9,681.7,6.4,698.7L6.4,698.7z"
   id="path847" />
	<path
   style="fill-rule:evenodd;clip-rule:evenodd;fill:url(#linearGradient2536);fill-opacity:1"
   d="M0.1,620.8h1219.8c0.1-3.6,0.1-7.2,0.1-10.8   c0-14.1-0.5-28.1-1.4-41.9H1.4C0.5,581.9,0,595.9,0,610C0,613.6,0,617.2,0.1,620.8L0.1,620.8z"
   id="path849" />
	<path
   style="fill-rule:evenodd;clip-rule:evenodd;fill:url(#linearGradient2536);fill-opacity:1"
   d="M3.6,543.5h1212.8c-2.3-20.8-5.6-41.4-9.9-61.5H13.5   C9.2,502.1,5.8,522.7,3.6,543.5L3.6,543.5z"
   id="path851" />
	<path
   style="fill-rule:evenodd;clip-rule:evenodd;fill:url(#linearGradient2536);fill-opacity:1"
   d="M16.5,468.4h1187C1139.6,199.8,898.1,0,610,0   S80.4,199.8,16.5,468.4L16.5,468.4z"
   id="path853" />
</g>
</svg>
