<svg xmlns="http://www.w3.org/2000/svg" width="1220" height="1220" xmlns:v="https://vecta.io/nano"><defs><linearGradient id="A" x1="608.218" y1="-10.691" x2="618.909" y2="1225.94" gradientUnits="userSpaceOnUse"><stop offset="0" stop-color="#ffe915"/><stop offset=".1" stop-color="#ffd01f"/><stop offset=".2" stop-color="#fca719"/><stop offset=".3" stop-color="#f97119"/><stop offset=".4" stop-color="#f95530"/><stop offset=".5" stop-color="#f53d5d"/><stop offset="1" stop-color="#f0a"/></linearGradient></defs><g fill-rule="evenodd" fill="url(#A)"><path d="M846.6 1172.4H373.4C446.1 1203 526.1 1220 610 1220s163.8-16.9 236.6-47.6h0z"/><path d="M275 1119.8h670c24.8-16.3 48.4-34.4 70.5-54.1h-811c22.1 19.7 45.6 37.8 70.5 54.1h0z"/><path d="M158 1019.7h904c13.9-15.3 27-31.3 39.3-48H118.8c12.2 16.6 25.3 32.7 39.2 48h0z"/><path d="M92.1 932.5h1035.8c8.9-14.2 17.2-28.9 24.9-43.9H67.2c7.7 15 16 29.6 24.9 43.9h0z"/><path d="M51.3 855.2h1117.4c6.7-15.2 12.7-30.7 18.2-46.5H33.1c5.4 15.8 11.5 31.3 18.2 46.5h0z"/><path d="M22.1 773.4h1175.7c4.1-14.6 7.6-29.5 10.6-44.5H11.6c2.9 15 6.5 29.9 10.5 44.5h0z"/><path d="M6.4 698.7h1207.2c2.5-17 4.3-34.3 5.3-51.7H1.1c1 17.5 2.8 34.7 5.3 51.7h0z"/><path d="M.1 620.8h1219.8c.1-3.6.1-7.2.1-10.8 0-14.1-.5-28.1-1.4-41.9H1.4C.5 581.9 0 595.9 0 610l.1 10.8h0z"/><path d="M3.6 543.5h1212.8c-2.3-20.8-5.6-41.4-9.9-61.5H13.5c-4.3 20.1-7.7 40.7-9.9 61.5h0z"/><path d="M16.5 468.4h1187C1139.6 199.8 898.1 0 610 0S80.4 199.8 16.5 468.4h0z"/></g></svg>