<?xml version="1.0" encoding="UTF-8" standalone="no"?>
<svg
   width="512"
   height="512"
   version="1.1"
   id="svg41"
   sodipodi:docname="icon-maskable.svg"
   inkscape:version="1.2.2 (732a01da63, 2022-12-09)"
   xmlns:inkscape="http://www.inkscape.org/namespaces/inkscape"
   xmlns:sodipodi="http://sodipodi.sourceforge.net/DTD/sodipodi-0.dtd"
   xmlns:xlink="http://www.w3.org/1999/xlink"
   xmlns="http://www.w3.org/2000/svg"
   xmlns:svg="http://www.w3.org/2000/svg">
  <sodipodi:namedview
     id="namedview43"
     pagecolor="#ffffff"
     bordercolor="#000000"
     borderopacity="0.25"
     inkscape:showpageshadow="2"
     inkscape:pageopacity="0.0"
     inkscape:pagecheckerboard="0"
     inkscape:deskcolor="#d1d1d1"
     showgrid="false"
     inkscape:zoom="0.84180328"
     inkscape:cx="-292.2298"
     inkscape:cy="315.98831"
     inkscape:window-width="2560"
     inkscape:window-height="1377"
     inkscape:window-x="-8"
     inkscape:window-y="-8"
     inkscape:window-maximized="1"
     inkscape:current-layer="svg41" />
  <defs
     id="defs17">
    <linearGradient
       id="A"
       x1="608.21802"
       y1="-10.691"
       x2="618.909"
       y2="1225.9399"
       gradientUnits="userSpaceOnUse">
      <stop
         offset="0"
         stop-color="#ffe915"
         id="stop2" />
      <stop
         offset=".1"
         stop-color="#ffd01f"
         id="stop4" />
      <stop
         offset=".2"
         stop-color="#fca719"
         id="stop6" />
      <stop
         offset=".3"
         stop-color="#f97119"
         id="stop8" />
      <stop
         offset=".4"
         stop-color="#f95530"
         id="stop10" />
      <stop
         offset=".5"
         stop-color="#f53d5d"
         id="stop12" />
      <stop
         offset="1"
         stop-color="#f0a"
         id="stop14" />
    </linearGradient>
    <linearGradient
       inkscape:collect="always"
       xlink:href="#A"
       id="linearGradient295"
       gradientUnits="userSpaceOnUse"
       x1="608.21802"
       y1="-10.691"
       x2="618.909"
       y2="1225.9399" />
    <linearGradient
       inkscape:collect="always"
       xlink:href="#A"
       id="linearGradient297"
       gradientUnits="userSpaceOnUse"
       x1="608.21802"
       y1="-10.691"
       x2="618.909"
       y2="1225.9399" />
    <linearGradient
       inkscape:collect="always"
       xlink:href="#A"
       id="linearGradient299"
       gradientUnits="userSpaceOnUse"
       x1="608.21802"
       y1="-10.691"
       x2="618.909"
       y2="1225.9399" />
    <linearGradient
       inkscape:collect="always"
       xlink:href="#A"
       id="linearGradient301"
       gradientUnits="userSpaceOnUse"
       x1="608.21802"
       y1="-10.691"
       x2="618.909"
       y2="1225.9399" />
    <linearGradient
       inkscape:collect="always"
       xlink:href="#A"
       id="linearGradient303"
       gradientUnits="userSpaceOnUse"
       x1="608.21802"
       y1="-10.691"
       x2="618.909"
       y2="1225.9399" />
    <linearGradient
       inkscape:collect="always"
       xlink:href="#A"
       id="linearGradient305"
       gradientUnits="userSpaceOnUse"
       x1="608.21802"
       y1="-10.691"
       x2="618.909"
       y2="1225.9399" />
    <linearGradient
       inkscape:collect="always"
       xlink:href="#A"
       id="linearGradient307"
       gradientUnits="userSpaceOnUse"
       x1="608.21802"
       y1="-10.691"
       x2="618.909"
       y2="1225.9399" />
    <linearGradient
       inkscape:collect="always"
       xlink:href="#A"
       id="linearGradient309"
       gradientUnits="userSpaceOnUse"
       x1="608.21802"
       y1="-10.691"
       x2="618.909"
       y2="1225.9399" />
    <linearGradient
       inkscape:collect="always"
       xlink:href="#A"
       id="linearGradient311"
       gradientUnits="userSpaceOnUse"
       x1="608.21802"
       y1="-10.691"
       x2="618.909"
       y2="1225.9399" />
    <linearGradient
       inkscape:collect="always"
       xlink:href="#A"
       id="linearGradient313"
       gradientUnits="userSpaceOnUse"
       x1="608.21802"
       y1="-10.691"
       x2="618.909"
       y2="1225.9399" />
    <linearGradient
       inkscape:collect="always"
       xlink:href="#A"
       id="linearGradient315"
       gradientUnits="userSpaceOnUse"
       x1="608.21802"
       y1="-10.691"
       x2="618.909"
       y2="1225.9399" />
  </defs>
  <g
     fill-rule="evenodd"
     fill="url(#A)"
     id="g39"
     style="fill:url(#linearGradient315)"
     transform="scale(0.41967213)">
    <path
       d="M 846.6,1172.4 H 373.4 c 72.7,30.6 152.7,47.6 236.6,47.6 83.9,0 163.8,-16.9 236.6,-47.6 z"
       id="path19"
       style="fill:url(#linearGradient295)" />
    <path
       d="m 275,1119.8 h 670 c 24.8,-16.3 48.4,-34.4 70.5,-54.1 h -811 c 22.1,19.7 45.6,37.8 70.5,54.1 z"
       id="path21"
       style="fill:url(#linearGradient297)" />
    <path
       d="m 158,1019.7 h 904 c 13.9,-15.3 27,-31.3 39.3,-48 H 118.8 c 12.2,16.6 25.3,32.7 39.2,48 z"
       id="path23"
       style="fill:url(#linearGradient299)" />
    <path
       d="m 92.1,932.5 h 1035.8 c 8.9,-14.2 17.2,-28.9 24.9,-43.9 H 67.2 c 7.7,15 16,29.6 24.9,43.9 z"
       id="path25"
       style="fill:url(#linearGradient301)" />
    <path
       d="m 51.3,855.2 h 1117.4 c 6.7,-15.2 12.7,-30.7 18.2,-46.5 H 33.1 c 5.4,15.8 11.5,31.3 18.2,46.5 z"
       id="path27"
       style="fill:url(#linearGradient303)" />
    <path
       d="m 22.1,773.4 h 1175.7 c 4.1,-14.6 7.6,-29.5 10.6,-44.5 H 11.6 c 2.9,15 6.5,29.9 10.5,44.5 z"
       id="path29"
       style="fill:url(#linearGradient305)" />
    <path
       d="m 6.4,698.7 h 1207.2 c 2.5,-17 4.3,-34.3 5.3,-51.7 H 1.1 c 1,17.5 2.8,34.7 5.3,51.7 z"
       id="path31"
       style="fill:url(#linearGradient307)" />
    <path
       d="m 0.1,620.8 h 1219.8 c 0.1,-3.6 0.1,-7.2 0.1,-10.8 0,-14.1 -0.5,-28.1 -1.4,-41.9 H 1.4 C 0.5,581.9 0,595.9 0,610 Z"
       id="path33"
       style="fill:url(#linearGradient309)" />
    <path
       d="m 3.6,543.5 h 1212.8 c -2.3,-20.8 -5.6,-41.4 -9.9,-61.5 H 13.5 c -4.3,20.1 -7.7,40.7 -9.9,61.5 z"
       id="path35"
       style="fill:url(#linearGradient311)" />
    <path
       d="m 16.5,468.4 h 1187 C 1139.6,199.8 898.1,0 610,0 321.9,0 80.4,199.8 16.5,468.4 Z"
       id="path37"
       style="fill:url(#linearGradient313)" />
  </g>
</svg>
