<svg viewBox="0 0 1220 1220" style="enable-background:new 0 0 1220 1220" xml:space="preserve" xmlns:xlink="http://www.w3.org/1999/xlink" xmlns="http://www.w3.org/2000/svg"><defs><linearGradient id="a"><stop style="stop-color:#ffe915;stop-opacity:1" offset="0"/><stop style="stop-color:#ffd01f;stop-opacity:1" offset=".1"/><stop style="stop-color:#fca719;stop-opacity:1" offset=".2"/><stop style="stop-color:#f97119;stop-opacity:1" offset=".3"/><stop style="stop-color:#f95530;stop-opacity:1" offset=".4"/><stop style="stop-color:#f53d5d;stop-opacity:1" offset=".5"/><stop style="stop-color:#f0a;stop-opacity:1" offset="1"/></linearGradient><linearGradient xlink:href="#a" id="b" gradientUnits="userSpaceOnUse" x1="608.218" y1="-10.691" x2="618.909" y2="1225.94"/></defs><path style="fill-rule:evenodd;clip-rule:evenodd;fill:url(#b);fill-opacity:1" d="M846.6 1172.4H373.4C446.1 1203 526.1 1220 610 1220s163.8-16.9 236.6-47.6zM275 1119.8h670c24.8-16.3 48.4-34.4 70.5-54.1h-811c22.1 19.7 45.6 37.8 70.5 54.1zM158 1019.7h904c13.9-15.3 27-31.3 39.3-48H118.8c12.2 16.6 25.3 32.7 39.2 48zM92.1 932.5h1035.8c8.9-14.2 17.2-28.9 24.9-43.9H67.2c7.7 15 16 29.6 24.9 43.9zM51.3 855.2h1117.4c6.7-15.2 12.7-30.7 18.2-46.5H33.1c5.4 15.8 11.5 31.3 18.2 46.5zM22.1 773.4h1175.7c4.1-14.6 7.6-29.5 10.6-44.5H11.6c2.9 15 6.5 29.9 10.5 44.5zM6.4 698.7h1207.2c2.5-17 4.3-34.3 5.3-51.7H1.1c1 17.5 2.8 34.7 5.3 51.7zM.1 620.8h1219.8c.1-3.6.1-7.2.1-10.8 0-14.1-.5-28.1-1.4-41.9H1.4C.5 581.9 0 595.9 0 610c0 3.6 0 7.2.1 10.8zM3.6 543.5h1212.8c-2.3-20.8-5.6-41.4-9.9-61.5H13.5c-4.3 20.1-7.7 40.7-9.9 61.5zM16.5 468.4h1187C1139.6 199.8 898.1 0 610 0S80.4 199.8 16.5 468.4z"/></svg>